<svg width="31" height="22" viewBox="0 0 31 22" fill="none" xmlns="http://www.w3.org/2000/svg">
<path d="M15.5998 0H15.7722C17.365 0.00581286 25.4352 0.0639418 27.6111 0.649104C28.2689 0.827691 28.8683 1.17579 29.3495 1.65862C29.8306 2.14145 30.1766 2.74209 30.3528 3.40053C30.5485 4.13682 30.6861 5.11145 30.7791 6.11707L30.7985 6.31858L30.8411 6.82237L30.8566 7.02388C30.9826 8.79486 30.9981 10.4535 31 10.8158V10.9611C30.9981 11.337 30.9806 13.108 30.8411 14.9526L30.8256 15.1561L30.8082 15.3576C30.7113 16.4659 30.5679 17.5665 30.3528 18.3764C30.1766 19.0348 29.8306 19.6355 29.3495 20.1183C28.8683 20.6011 28.2689 20.9492 27.6111 21.1278C25.3635 21.7324 16.8205 21.775 15.6366 21.7769H15.3615C14.7627 21.7769 12.2865 21.7653 9.69004 21.6762L9.36065 21.6645L9.19207 21.6568L8.86074 21.6432L8.52941 21.6297C6.37865 21.5347 4.33058 21.3817 3.38696 21.1259C2.72939 20.9475 2.13012 20.5997 1.64901 20.1172C1.16791 19.6347 0.82179 19.0345 0.645228 18.3764C0.430152 17.5684 0.286768 16.4659 0.189887 15.3576L0.174386 15.1541L0.158885 14.9526C0.0627081 13.6397 0.00971778 12.324 0 11.0076L0 10.7693C0.00387524 10.3527 0.0193762 8.91306 0.124008 7.32421L0.137571 7.12463L0.143384 7.02388L0.158885 6.82237L0.201513 6.31858L0.220889 6.11707C0.313895 5.11145 0.451466 4.13488 0.647165 3.40053C0.823432 2.74209 1.16942 2.14145 1.65054 1.65862C2.13167 1.17579 2.73109 0.827691 3.3889 0.649104C4.33252 0.397213 6.38059 0.242203 8.53135 0.145321L8.86074 0.131758L9.19401 0.120133L9.36065 0.11432L9.69198 0.100757C11.536 0.0414721 13.3808 0.00852894 15.2258 0.00193771L15.5998 0ZM12.4008 6.21977V15.5552L20.4555 10.8894L12.4008 6.21977Z" fill="white"/>
</svg>
